<?xml version="1.0" encoding="utf-8"?>
<!-- Generator: Adobe Illustrator 27.5.0, SVG Export Plug-In . SVG Version: 6.00 Build 0)  -->
<svg version="1.1" id="Слой_1" xmlns="http://www.w3.org/2000/svg" xmlns:xlink="http://www.w3.org/1999/xlink" x="0px" y="0px"
	 viewBox="0 0 3200 2000" style="enable-background:new 0 0 3200 2000;" xml:space="preserve">
<rect x="0" style="fill:#FFFFFF;" width="3200" height="2000"/>
<g>
	<g>
		<path style="fill:#EBF3FA;" d="M386.281,1808.063l852.186-4.466l227.155-0.068l75.255-0.027l227.587-0.068l1039.762-0.286
			c0,0,237.825-307.779-16.213-600.099c-263.391-303.082-391.463-56.251-472.425-482.874
			C2115.794-353.7,100.915,271.319,629.403,1185.144C819.693,1514.182,254.831,1339.294,386.281,1808.063z"/>
		<g>
			<path style="fill:#233862;" d="M1372.043,1756.318c0,0,3.237,37.451-4.68,41.349l-101.315-0.208c0,0,0-11.692,16.273-14.291
				c16.273-2.599,44.861-12.126,49.699-33.346C1336.858,1728.602,1372.043,1756.318,1372.043,1756.318z"/>
			<path style="fill:#233862;" d="M1662.751,1741.823c0,0,3.047,51.946-4.869,55.844l-101.315-0.208c0,0,0-11.692,16.273-14.291
				c16.273-2.599,44.86-12.126,49.699-33.346C1627.377,1728.602,1662.751,1741.823,1662.751,1741.823z"/>
			<path style="fill:#2A4E96;" d="M1666.202,1748.213c0,0-20.114,10.362-28.719,12.246c-9.568,2.113-27.534,0.77-27.534,0.77
				c-34.462-92.381-141.328-467.91-141.328-467.91c-4.641,103.845-23.388,207.402-42.859,290.65
				c-0.517,2.229-1.045,4.445-1.562,6.64v0.034c-0.471,1.999-0.954,3.986-1.425,5.95c-0.022,0.093-0.046,0.173-0.057,0.265
				c-23.641,98.239-47.339,165.141-47.339,165.141s-6.123,7.742-23.159,4.204c-19.528-4.055-26.041-12.636-26.041-12.636
				c12.636-400.135,19.689-625.768,19.689-625.768s169.149-91.381,215.098-13.268
				C1606.916,1192.645,1666.202,1748.213,1666.202,1748.213z"/>
			<path style="fill:#AEC3FF;" d="M1598.043,1168.486c-21.929-78.4-25.536-152.838-25.364-214.467
				c0.23-87.716,8.11-149.495-18.288-159.913c0,0-81.563-23.709-137.7-34.157c-8.94-4.923-18.873-10.08-26.402-13.136
				c-17.724-7.194-86.832-107.652-98.548-131.703c-11.716-24.051-31.11-128.842-31.11-128.842l-26.93,8.585
				c0,0-8.089,117.624-4.21,148.285c3.878,30.658,89.445,162.485,96.546,174.022l-0.001,0.001
				c30.464,111.346,0,292.545,13.923,332.947c7.156,20.78,139.972,58.86,212.663,54.07c3.619-0.241,7.099-0.586,10.396-1.046
				c0.011,0,0.023-0.011,0.035-0.011c17.196-2.39,29.706-7.881,34.289-17.519
				C1599.583,1180.916,1599.939,1175.253,1598.043,1168.486z"/>
			<path style="fill:#FFB27D;" d="M1260.632,486.268c0,0,15.218-44.213,4.086-45.498c-11.131-1.284-39.057-1.148-42.502,6.318
				c-3.446,7.467,11.487,47.764,11.487,47.764L1260.632,486.268z"/>
			<g>
				<g>
					<g>
						<path style="fill:#ED7D2B;" d="M970.928,596.424l-89.829-54.322c3.985-6.59,10.268-10.945,17.202-12.653
							c6.942-1.704,14.521-0.769,21.118,3.221c5.808,3.512,13.368,1.644,16.88-4.164l24.31-40.198l21.032,12.719l-24.31,40.198
							c-1.756,2.904-2.171,6.249-1.418,9.306c0.753,3.057,2.674,5.826,5.578,7.583c6.59,3.985,10.945,10.267,12.653,17.201
							C975.852,582.248,974.913,589.834,970.928,596.424z"/>
						<path style="fill:#F99746;" d="M970.928,596.424l-59.716-36.112c-13.828-11.546-7.068-21.429-0.134-23.137
							c6.942-1.703,14.521-0.769,21.118,3.221c5.808,3.512,13.368,1.643,16.88-4.165l24.31-40.198l8.255,4.992l-24.31,40.198
							c-1.756,2.904-2.171,6.249-1.418,9.306c0.753,3.057,2.674,5.826,5.578,7.583c6.59,3.985,10.945,10.267,12.653,17.201
							C975.852,582.248,974.913,589.834,970.928,596.424z"/>
						<path style="fill:#F99746;" d="M1233.696,334.55l-72.698,91.64c-25.27,41.786-68.97,61.829-110.84,63.509
							c-0.008-0.005-0.012,0.003-0.02-0.002c-14.265,0.575-28.31-0.981-41.346-4.539c-10.767-2.936-23.167,2.859-29.983,14.114
							l-1.424,2.354c-4.223,6.965-7.758,12.811-7.758,12.811l-15.31-9.258c0,0,3.565-5.913,7.808-12.929
							c7.468-12.384,7.063-27.488-1.125-36.649c-34.986-39.136-48.115-103.889-14.655-159.219l49.227-105.834L1233.696,334.55z"/>
						<g>
							<path style="fill:#ED7D2B;" d="M929.604,370.754c5.939-34.336-10.666-53.043-28.245-72.847
								c-14.057-15.836-28.593-32.211-31.719-56.584c-3.467-27.035,9.117-54.626,31.316-68.658
								c16.885-10.671,35.531-11.011,51.197-0.969c22.24,14.288,30.507,41.938,23.907,79.96
								c-4.727,27.233-15.309,50.231-15.757,51.197l-13.957-6.473c0.393-0.849,38.812-85.195-2.508-111.74
								c-14.253-9.167-27.836-3.285-34.662,1.031c-16.973,10.727-26.956,32.809-24.276,53.696
								c2.522,19.666,14.88,33.588,27.964,48.328c18.327,20.648,39.1,44.049,31.899,85.682L929.604,370.754z"/>
						</g>
						<g>
							<path style="fill:#F99746;" d="M1102.913,475.56c27.649-21.207,51.928-15.19,77.631-8.819
								c20.553,5.094,41.806,10.361,64.842,1.81c25.552-9.485,44.143-33.445,46.259-59.622c1.608-19.91-6.751-36.581-22.92-45.79
								c-22.983-13.06-51.309-7.54-81.916,15.964c-21.922,16.835-37.375,36.888-38.022,37.733l12.214,9.354
								c0.569-0.742,57.423-73.94,100.122-49.676c14.737,8.365,15.837,23.125,15.186,31.176
								c-1.617,20.014-16.536,39.109-36.278,46.438c-18.587,6.9-36.657,2.421-55.787-2.32c-26.797-6.641-57.17-14.169-90.696,11.544
								L1102.913,475.56z"/>
						</g>
						<path style="fill:#ED7D2B;" d="M1050.138,489.696c-14.265,0.575-28.31-0.981-41.346-4.539
							c-10.767-2.936-23.167,2.859-29.983,14.114l-1.424,2.354c-5.35,2.761-9.394,6.249-11.305,10.667l-11.763-7.113
							c0,0,3.565-5.913,7.808-12.929c7.468-12.384,7.063-27.488-1.125-36.649c-34.986-39.136-48.115-103.889-14.655-159.219
							l49.227-105.834l39.365,23.806C1034.938,214.354,875.106,430.927,1050.138,489.696z"/>
						<path style="fill:#F99746;" d="M979.291,523.749l-39.217-23.716c-5.324-3.219-7.046-10.21-3.826-15.533l0,0
							c3.219-5.324,10.209-7.046,15.533-3.826l39.217,23.716c5.324,3.22,7.046,10.21,3.826,15.534l0,0
							C991.605,525.247,984.615,526.969,979.291,523.749z"/>
					</g>
					<g>
						<path style="fill:#FFFFFF;" d="M991.293,391.95l4.209-6.961c19.944,10.777,22.513,9.504,30.703-4.04l41.181-68.098
							c5.802-9.594,2.871-12.394-4.273-17.999l-5.075-4.353l3.754-6.208c15.509,7.066,33.962,13.087,47.45,15.849l-58.018,95.938
							c-8.418,13.92-8.313,16.296,10.306,28.84l-4.209,6.961L991.293,391.95z"/>
					</g>
				</g>
			</g>
			<path style="fill:#FFB27D;" d="M1222.216,447.088c0,0-1.436,15.221,3.446,18.092c4.882,2.872,6.605-18.092,6.605-18.092
				s0.288,17.197,4.021,18.362c3.733,1.166,6.031-19.798,6.031-19.798s0.397,16.657,2.927,16.082
				c2.529-0.574,4.253-16.082,4.253-16.082s1.148,12.091,4.595,9.923c3.446-2.169,6.721-15.148,6.721-15.148L1222.216,447.088z"/>
			<path style="fill:#FFB27D;" d="M1260.632,486.268c0,0,10.404-8.164,12.702-15.631c2.297-7.467,9.049-20.02,5.456-21.539
				c-3.592-1.519-14.072,14.646-14.072,14.646L1260.632,486.268z"/>
			<path style="fill:#FFB27D;" d="M1441.013,747.919l-1.307,6.803c0,0-6.054,20.887,19.502,29.165
				c25.555,8.288,47.097,12.123,49.631-4.417c0.154-13.164-0.171-33.71,1.731-44.251c0.708-3.917,1.794-8.008,3.447-12.542
				l-50.509-11.042l-15.418-0.514L1441.013,747.919z"/>
			<path style="fill:#E2915A;" d="M1448.09,711.122l-4.704,24.799c47.988,12.71,68.979-8.71,70.631-13.244l-50.509-11.042
				L1448.09,711.122z"/>
			<path style="fill:#FFB27D;" d="M1521.421,712.388c-14.884,30.248-55.767,17.646-72.998,10.646
				c-4.852-1.962-7.823-3.485-7.823-3.485c-5.223-3.093-5.878-12.871-4.073-24.932c3.564-23.87,16.731-56.683,23.054-64.247
				c9.517-11.38,24.511-22.369,63.125-0.569C1561.326,651.611,1540.502,673.636,1521.421,712.388z"/>
			<path style="fill:#233862;" d="M1455.38,596.424c0,0,18.646,3.718,42.8,0.399c19.605-2.694,39.302,11.858,45.4,17.636
				c0.131-1.207,0.112-2.91-0.537-4.795c0,0,2.574,3.18,2.153,6.497c0.262,0.337,0.363,0.546,0.262,0.579
				c0,0,3.829,0.356,5.874,2.066c0,0-1.572-0.694-2.453,0.195c-0.093,0.094-0.212,0.162-0.343,0.216
				c23.561,20.818,13.99,64.601,2.422,72.107c-13.917,9.03-37.82,33.885-37.82,33.885s0.846-9.075,5.726-19.089
				c4.88-10.014-4.234-12.572-14.4-20.599c-10.166-8.027,3.196-18.766-4.588-29.747c-7.785-10.981-46.066-16.549-43.836-22.65
				C1443.731,624.283,1454.986,597.828,1455.38,596.424z"/>
			<path style="fill:#FFFFFF;" d="M1461.519,701.24c0,0-2.487,3.742-12.454-0.675c0,0-8.369-3.707-6.434-8.117
				C1442.631,692.448,1452.125,692.323,1461.519,701.24z"/>
			<path style="fill:#ED7D2B;" d="M1450.299,803.493c0,0-23.037,152.872-195.345,259.029l-16.082,46.715h62.193
				c0,0,154.332-129.423,164.68-301.349L1450.299,803.493z"/>
			<polygon style="fill:#DB6516;" points="1450.299,803.493 1450.299,780.318 1478.702,788.359 1465.745,807.887 			"/>
			<path style="fill:#9DB0F4;" d="M1441.013,747.919l-16.622,14.206c0,0-4.595,19.842,6.605,41.367l33.504-19.154
				C1464.5,784.338,1444.712,774.78,1441.013,747.919z"/>
			<path style="fill:#9DB0F4;" d="M1464.5,784.338c0,0,3.324,17.992,12.049,26.895c0,0,37.743-6.605,48.218-24.698l-15.807-24.692
				C1508.96,761.843,1505.185,778.695,1464.5,784.338z"/>
			<path style="fill:#FFB27D;" d="M1690.639,1180.563c0,0,0.067,34.225-3.082,41.03s-17.273,28.978-23.783,33.721
				c-6.509,4.742,1.404-27.41-0.64-33.291c-2.045-5.881-4.55,11.6-7.563,12.32c-3.012,0.721-3.833-14.689-4.528-20.257
				s12.834-20.908,16.866-33.339C1671.941,1168.316,1690.639,1180.563,1690.639,1180.563z"/>
			<path style="fill:#AEC3FF;" d="M1553.856,794.102c0,0,33.186,9.043,55.678,58.531c23.585,51.892,86.703,167.165,89.047,183.072
				c2.344,15.908-4.182,164.487-4.182,164.487s-27.623,1.069-36.15-12.034c0,0-9.616-130.433-13.87-137.52
				c-4.255-7.087-112.953-136.72-103.796-169.613C1549.739,848.132,1553.856,794.102,1553.856,794.102z"/>
			<path style="fill:#9DB0F4;" d="M1597.343,1185.603c-8.225,7.054-19.333,13.199-34.289,17.519c-0.012,0-0.023,0.011-0.035,0.011
				c-3.676,1.058-7.133,1.379-10.396,1.046c-60.745-6.261-51.405-242.255-21.975-259.692c31.016-18.379,42.032,9.534,42.032,9.534
				c-0.172,61.629,3.435,136.066,25.364,214.467C1599.939,1175.253,1599.583,1180.916,1597.343,1185.603z"/>
			<path style="fill:#233862;" d="M1422.775,1596.593c0.402-1.838,0.873-3.825,1.425-5.95
				C1423.729,1592.642,1423.247,1594.629,1422.775,1596.593z"/>
			<path style="fill:#233862;" d="M1425.762,1583.969c18.586-87.97-1.447-323.699,7.501-328.179
				c9.189-4.595,35.357,37.528,35.357,37.528C1463.98,1397.163,1445.233,1500.721,1425.762,1583.969z"/>
		</g>
		<g>
			<polygon style="fill:#FFB27D;" points="971.288,1763.639 965.931,1725.053 988.435,1706.248 995.524,1757.333 			"/>
			<path style="fill:#233862;" d="M1046.021,1798.105h-91.747c0,0-2.199-13.982,2.593-24.591
				c4.592-10.18,11.738-16.463,12.39-24.262c5.83,6.003,13.003,9.864,26.268,8.08c1.625,2.635,10.49,16.735,15.919,20.635
				C1017.439,1782.276,1044.174,1780.741,1046.021,1798.105z"/>
			<path style="fill:#F99746;" d="M1027.586,1242.604c-6,48.266-10.906,93.771-14.903,136.18
				c-21.353,225.964-17.162,364.075-17.162,364.075s-1.544,4.089-14.78,4.149c-7.482,0.041-14.811-1.594-14.811-1.594
				s-47.806-147.557-44.116-231.525c0.44-10.099,1.625-19.277,3.731-27.178c11.468-42.961-42.44-207.26,16.16-268.444
				C1000.295,1157.092,1030.346,1220.453,1027.586,1242.604z"/>
			<path style="fill:#ED7D2B;" d="M1027.586,1242.604c-6,48.266-10.906,93.771-14.903,136.18l-90.868,135.105
				c0.44-10.099,1.625-19.277,3.731-27.178c11.468-42.961-42.44-207.26,16.16-268.444
				C1000.295,1157.092,1030.346,1220.453,1027.586,1242.604z"/>
			<path style="fill:#FFB27D;" d="M1099.794,782.225c0,0-2.212-11.028-4.702-19.443c-1.102-3.724,6.579-28.182,11.893-31.192
				c5.315-3.01,19.158,13.461,15.241,26.108c-2.012,6.496-5.318,27.636-5.318,27.636L1099.794,782.225z"/>
			<path style="fill:#FFB27D;" d="M1099.794,782.225c0,0-2.889-6.394-5.499-7.43c-2.609-1.037-5.406-11.492-7.321-15.637
				c0,0,1.85-2.712,5.087,0.777c1.975,2.128,6.376,8.368,6.376,8.368L1099.794,782.225z"/>
			<path style="fill:#FFB27D;" d="M721.052,819.317c-0.562,1.161-1.344,3.236-2.04,5.185c-0.012-0.532-0.021-1.058-0.025-1.575
				c-0.036-3.883-14.539-25.022-20.501-26.345c-5.963-1.323-14.379,18.479-6.932,29.426c3.825,5.623,13.173,24.87,13.173,24.87
				l15.454-7.982c0,0,0.892-6.96,3.083-8.714c2.191-1.754,1.805-12.571,2.424-17.095
				C725.689,817.086,723.126,815.034,721.052,819.317z"/>
			<path style="fill:#FFB27D;" d="M817.422,1752.071c-1.297-12.369-1.618-44.906-1.618-44.906s33.156-10.599,31.936-3.321
				c-5.999,35.774-4.371,53.489-4.371,53.489l-13.408,8.009L817.422,1752.071z"/>
			<path style="fill:#F99746;" d="M999.895,1240.304c0,0-128.086,351.104-153.299,503.403c0,0-5.842,4.014-16.737,2.683
				c-12.359-1.51-15.745-10.094-15.745-10.094s-23.139-182.536,22.852-245.909c31.598-43.539-13.628-234.751,59.965-250.083
				C970.526,1224.972,999.895,1240.304,999.895,1240.304z"/>
			<path style="fill:#163560;" d="M977.146,902.56c-0.002-0.013-0.002-0.013-0.002-0.013c-0.023-0.154-0.058-0.305-0.107-0.455
				c-0.747-3.091-1.565-6.132-2.446-9.15c-0.001-0.013-0.001-0.013-0.001-0.013c-2.681-9.233-5.87-18.024-9.312-25.785
				c-1.981-4.449-4.033-8.575-6.134-12.248c-0.32-0.566-0.633-1.095-0.937-1.638l-0.015-0.011
				c-4.949-8.32-10.039-14.071-14.628-15.846c-8.375-3.237-17.689-2.335-24.104-1.002c1.407-1.961,4.6-3.076,4.6-3.076
				c-4.104-0.003-12.463,5.304-12.463,5.304c-58.994-13.193-55.546,70.26-51.53,89.174c4.003,18.916-14.991,28.106-41.778,47.46
				c-51.12,36.93-50.264,76.074-50.264,76.074c0.46,0.193,0.964,0.419,1.486,0.681c2.057-5.063,6.42-14.65,10.993-16.677
				c-0.129,0.45-3.849,12.87-4.906,19.822c7.787,4.292,18.563,10.936,30.265,18.435c0,0,0,0,0.015,0.011
				c15.657,10.021,32.938,21.552,46.784,30.914c-0.658-3.81-1.309-9.241-0.341-12.313l4.412,13.667l0.579,1.783
				c8.837,5.99,15.81,10.782,19.35,13.235c0.363,0.246,0.685,0.473,0.975,0.665c1.033,0.709,1.587,1.097,1.587,1.097
				c-1.176-4.83,3.982-17.425,12.638-33.297c0.593-1.107,1.223-2.233,1.863-3.374c2.796-5.017,5.917-10.303,9.275-15.756
				c1.21-1.97,2.432-3.942,3.702-5.947c-0.002-0.013,0.011-0.015,0.011-0.015c1.015-1.615,2.044-3.219,3.107-4.854l0.011-0.015
				c2.508-3.876,5.103-7.777,7.75-11.687c6.857-10.129,14.117-20.187,21.292-29.409c10.418-13.429,20.639-25.104,29.2-32.741
				c0.28-0.578,0.545-1.166,0.784-1.764c1.34-3.113,2.368-6.573,3.165-10.089c0.248-1.057,0.468-2.122,0.664-3.183
				c2.132-11.229,2.174-22.37,2.146-25.019c0.686,10.85,0.413,19.032-0.314,25.217c-0.164,1.357-0.343,2.613-0.548,3.78l0.002,0.013
				c-0.457,2.643-0.981,4.825-1.548,6.634c1.401-1.737,2.633-3.646,3.722-5.729c0.712-1.361,1.362-2.791,1.937-4.287
				C984.986,953.511,983.127,927.219,977.146,902.56z"/>
			<path style="fill:#FFB27D;" d="M966.062,987.101c0.198,0.056-16.515,12.155-30.693,10.455
				c-13.335-1.588-24.18-16.959-24.009-17.022c5.267-1.886,5.722-9.576,0.84-41.607l2.525,0.118l42.467,2.033
				c0,0,0.993,13.122,2.784,25.356C961.477,976.708,963.548,986.354,966.062,987.101z"/>
			<path style="fill:#ED975D;" d="M957.193,941.079c0,0,0.993,13.122,2.784,25.356c-23.181,2.783-38.515-16.46-45.251-27.389
				L957.193,941.079z"/>
			<path style="fill:#163560;" d="M909.797,935.189c0,0-14.94-17.316-20.275-33.228c-3.809-11.361-4.299-55.497,40.092-55.733
				c0,0,12.809-0.634,25.867,5.615c10.385,4.97,26.051,16.704,16.437,56.713l-2.059,13.338L909.797,935.189z"/>
			<path style="fill:#FFFFFF;" d="M1032.938,1233.563c0,0-55.263,32.842-124.647,15.955c-0.817-0.198-57.133-9.186-57.133-9.186
				c0.968-2.648,8.246-46.151,9.198-48.585c12.309-31.767,34.805-204.166,53.602-212.671c4.799,5.227,18.516,8.805,30.255,7.762
				c13.519-1.195,18.045-7.035,16.923-13.316c14.96,7.073,26.455,13.648,26.455,13.648
				C1001.264,1007.656,1032.938,1233.563,1032.938,1233.563z"/>
			<path style="fill:#FFB27D;" d="M966.624,951.513c0,0-54.483,9.025-59.581-24.991c-5.098-34.016-15.563-55.76,19.007-62.96
				c34.57-7.2,43.29,4.764,47.753,15.704C978.267,890.206,980.665,948.288,966.624,951.513z"/>
			<path style="fill:#163560;" d="M950.802,859.028c0,0-9.017,42.138-31.089,51.454c-22.072,9.315-32.941,4.647-32.941,4.647
				s15.523-16.603,15.545-41.557C902.317,873.571,936.696,841.709,950.802,859.028z"/>
			<path style="fill:#163560;" d="M947.577,862.82c0,0,12.494,7.249,16.505,15.508c4.012,8.258,7.889,25.911,12.997,24.531
				c0,0,7.231-28.805-7.713-42.268C953.519,846.315,947.577,862.82,947.577,862.82z"/>
			<path style="fill:#2B478B;" d="M1117.28,783.01c-2.216-0.779-5.481-2.626-9.741-3.009c-3.794-0.341-8.56,0.895-8.56,0.895
				s-15.371,95.553-16.513,100.615c-1.141,5.063-65.933,78.049-83.401,77.757c-15.773-0.264-34.46,11.913-37.929,14.254
				c0,0,36.734,77.675,38.566,92.269c1.993,15.875,21.008,260.373,21.008,260.373s-1.13,11.374,20.122,5.259
				c21.252-6.115,26.566-11.176,26.566-11.176s-19.521-192.483-23.617-252.343c-0.55-8.037-1.861-15.474-3.729-22.335
				c-1.8-6.615-0.38-13.689,3.657-19.231c26.869-36.884,69.299-96.641,71.663-109.341
				C1118.848,898.334,1117.28,783.01,1117.28,783.01z"/>
			<path style="fill:#233862;" d="M893.865,1798.105h-91.746c0,0-2.199-13.982,2.593-24.591
				c4.592-10.18,11.738-16.463,12.389-24.262c5.83,6.003,13.004,9.864,26.268,8.08c1.625,2.635,10.491,16.735,15.919,20.635
				C865.284,1782.276,892.019,1780.741,893.865,1798.105z"/>
			<path style="fill:#2B478B;" d="M956.89,1073.333c-3.092-19.027-42.57-95.428-42.57-95.428s-24.956-7.464-41.382-1.514
				c-16.426,5.951-101.412-42.033-104.136-46.45c-2.724-4.418-48.243-89.237-48.243-89.237s-3.774-2.186-9.822,0.966
				c-5.983,3.118-6.01,9.207-6.01,9.207s35.131,106.792,44.477,123.314c5.636,9.962,53.019,44.646,89.757,70.616
				c7.015,4.959,10.698,13.403,9.546,21.917c-4.94,36.518-6.196,57.082-11.878,119.746c-4.713,51.984-6.517,152.625-6.517,152.625
				s41.111,14.227,69.483,16.113c28.373,1.888,34.556-28.021,34.556-28.021S960.068,1092.896,956.89,1073.333z"/>
			<path style="fill:#FFFFFF;" d="M948.771,934.695c0,0,6.619,3.886,14.434,2.715c5.354-0.803,6.57-7.154,6.57-7.154
				s-3.721-1.172-9.66,0.021C954.176,931.469,948.771,934.695,948.771,934.695z"/>
		</g>
		<g>
			<path style="fill:#163560;" d="M2010.063,927.565c0,0,16.925,27.89-14.896,45.453c0,0,24.459,8.82,32.977,5.492
				c0,0-2.111,2.196-3.716,3c0,0,22.986,7.299,34.445,3.314c11.459-3.984,36.134-115.286-31.716-121.158
				c0,0-53.519-19.163-64.835,40.562s-31.928,53.928-31.928,53.928s4.999,4.22,7.766,4.999c0,0,4.445-0.287,5.824-2.125
				c0,0-1.71,3.017-3.038,3.756c0,0,21.7,8.204,34.989,3.58S2009.851,940.484,2010.063,927.565z"/>
			<path style="fill:#233862;" d="M1941.948,1806.239h86.562c0,0,2.075-13.192-2.446-23.201
				c-4.332-9.604-11.074-15.533-11.689-22.891c-5.5,5.663-12.269,9.307-24.783,7.623c-1.533,2.485-9.897,15.789-15.02,19.47
				C1968.915,1791.305,1943.69,1789.856,1941.948,1806.239z"/>
			<path style="fill:#2B478B;" d="M2013.477,1773.178c0,0-7.387,2.392-15.092,3.076c-13.637,1.215-15.623-2.845-15.623-2.845
				s-13.55-120.614-57.409-351.167c-6.326-33.3-8.824-51.729-11.109-81.325c-0.685-8.862-1.351-18.719-2.083-30.281
				c-1.986-31.072,2.729-83.37,26.048-97.112c10.599-6.259,25.044-4.542,44.467,10.753c1.523,1.205,3.096,2.497,4.687,3.876
				c56.831,49.164,33.531,190.349,35.827,256.726c0.386,11.004,1.475,19.953,3.741,26.087c2.932,7.927,9.229,18.921,10.656,29.278
				C2049.516,1626.332,2013.477,1773.178,2013.477,1773.178z"/>
			<path style="fill:#233862;" d="M2023.188,1484.878l-108.945-143.961c-0.685-8.862-1.351-18.719-2.083-30.281
				c-1.986-31.072,2.729-83.37,26.048-97.112l44.467,10.753c1.523,1.205,3.096,2.497,4.687,3.876
				C2044.192,1277.316,2020.893,1418.501,2023.188,1484.878z"/>
			<path style="fill:#233862;" d="M2331.136,1624.066l-36.026-78.709c0,0-12.859,3.604-20.078,11.881
				c-6.93,7.938-11.948,6.525-27.734-4.429c5.942,9.178,6.746,14.586,10.424,26.665c2.898,0.359,19.402,16.329,36.31,20.729
				C2300.771,1601.959,2315.514,1629.301,2331.136,1624.066z"/>
			<path style="fill:#2B478B;" d="M1953.413,1248.067c0,0,77.567,269.648,105.987,287.007
				c28.42,17.357,177.848,41.228,208.224,54.246c0,0,3.697-5.305,1.527-16.636c-0.481-2.517-4.768-11.572-4.768-11.572
				s-92.795-69.757-153.872-76.797c-15.155-1.747,30.86-233.21-71.561-242.454
				C1945.389,1233.418,1953.413,1248.067,1953.413,1248.067z"/>
			<path style="fill:#FFB27D;" d="M1842.75,805.667c0,0,2.086-10.405,4.436-18.344c1.04-3.514-6.207-26.589-11.221-29.429
				c-5.015-2.84-18.075,12.7-14.38,24.633c1.898,6.129,5.018,26.074,5.018,26.074L1842.75,805.667z"/>
			<path style="fill:#FFB27D;" d="M1842.75,805.667c0,0,2.726-6.033,5.188-7.01c2.462-0.978,5.101-10.843,6.908-14.754
				c0,0-1.746-2.559-4.8,0.733c-1.864,2.008-6.017,7.895-6.017,7.895L1842.75,805.667z"/>
			<path style="fill:#FFB27D;" d="M2200.087,840.663c0.53,1.095,1.269,3.053,1.925,4.892c0.011-0.501,0.019-0.998,0.023-1.486
				c0.034-3.664,13.717-23.608,19.344-24.856c5.625-1.248,13.565,17.434,6.539,27.762c-3.609,5.305-12.429,23.464-12.429,23.464
				l-14.581-7.531c0,0-0.842-6.566-2.909-8.222c-2.067-1.655-1.703-11.86-2.287-16.128
				C2195.712,838.558,2198.13,836.621,2200.087,840.663z"/>
			<path style="fill:#FFB27D;" d="M1968.924,998.964c-0.188,0.053,15.582,11.468,28.959,9.864c12.581-1.498,22.813-16,22.651-16.06
				c-4.969-1.778-5.398-9.034-0.793-39.254l-2.382,0.111l-40.068,1.918c0,0-0.936,12.38-2.626,23.923
				C1973.25,989.158,1971.296,998.26,1968.924,998.964z"/>
			<path style="fill:#ED975D;" d="M1977.291,955.543c0,0-0.936,12.38-2.626,23.923c21.871,2.626,36.339-15.53,42.694-25.841
				L1977.291,955.543z"/>
			<path style="fill:#163560;" d="M2022.009,949.986c0,0,14.097-16.336,19.13-31.35c3.593-10.718,4.056-52.361-37.826-52.584
				c0,0-12.086-0.598-24.406,5.298c-9.798,4.689-24.578,15.76-15.508,53.508l1.942,12.584L2022.009,949.986z"/>
			<path style="fill:#FFB27D;" d="M1918.667,1237.681c0,0,39.3,24.802,104.763,8.87c0.771-0.188,37.22-6.001,37.22-6.001
				c-0.913-2.499-39.215-65.784-40.113-68.08c-11.613-29.971,15.28-173.053-2.454-181.077c-4.527,4.932-17.469,8.307-28.545,7.323
				c-12.755-1.127-17.025-6.638-15.967-12.564c-14.114,6.673-24.96,12.876-24.96,12.876
				C1935.711,1018.358,1918.667,1237.681,1918.667,1237.681z"/>
			<path style="fill:#FFB27D;" d="M1968.393,965.387c0,0,51.404,8.515,56.214-23.579c4.811-32.093,14.685-52.608-17.933-59.402
				c-32.616-6.793-40.843,4.495-45.054,14.816C1957.408,907.545,1955.146,962.345,1968.393,965.387z"/>
			<path style="fill:#163560;" d="M1983.321,878.129c0,0,8.508,39.757,29.332,48.546c20.824,8.789,31.079,4.384,31.079,4.384
				s-14.646-15.665-14.666-39.208C2029.066,891.851,1996.631,861.789,1983.321,878.129z"/>
			<path style="fill:#163560;" d="M1986.363,881.706c0,0-11.787,6.84-15.571,14.632c-3.785,7.792-7.443,24.447-12.263,23.145
				c0,0-6.822-27.177,7.277-39.88C1980.758,866.134,1986.363,881.706,1986.363,881.706z"/>
			<path style="fill:#F99746;" d="M2212.147,870.438c0,0-33.146,100.758-41.97,116.342c-5.313,9.402-65.027,46.579-99.688,71.084
				c-0.376,0.26-0.819,0.8-1.33,1.591c-0.01,0.02-0.02,0.029-0.039,0.049c-8.65,13.375-35.537,96.176-29.114,111.037
				c27.031,62.463,45.557,86.62,52.298,104.143c3.365,8.737-1.129,18.525-9.952,21.67c-11.11,3.954-27.466,8.93-46.772,12.237
				c-3.684,0.637-7.474,1.206-11.351,1.697c-53.271,6.761-89.339-5.737-107.653-14.977c-8.659-4.368-13.887-13.462-13.347-23.145
				c1.1-19.76,10.984-39.317,15.44-86.842c3.375-36.058-27.735-90.931-26.425-110.122c0.521-7.59,6.491-16.674,9.722-22.557
				c0,0,0-0.01,0.01-0.02c5.719-10.415,8.862-19.827,5.053-25.054c-25.354-34.795-80.091-82.772-82.328-94.75
				c-3.27-17.609-1.794-126.419-1.794-126.419c2.093-0.733,5.169-2.479,9.19-2.835c3.578-0.318,8.072,0.839,8.072,0.839
				s14.504,90.159,15.584,94.933c1.08,4.774,62.202,73.64,78.683,73.36c14.881-0.251,35.865,11.245,39.135,13.453
				c0,0-13.356,23.675-16.693,55.645c-2.324,22.363,12.614,12.421,21.997-2.894c12.701-20.734,38.267-50.253,38.267-50.253
				s20.802-5.41,36.299,0.212c15.497,5.612,95.685-39.665,98.25-43.831c2.575-4.166,45.519-84.189,45.519-84.189
				s3.559-2.063,9.268,0.906C2212.118,864.69,2212.147,870.438,2212.147,870.438z"/>
			<path style="fill:#FFFFFF;" d="M1983.321,947.961c0,0-2.2,4.435-5.156,4.516c-2.955,0.081-10.47-0.63-10.981-1.397
				c-0.513-0.767-1.758-5.401-1.758-5.401S1977.849,945.182,1983.321,947.961z"/>
			<path style="fill:#ED7D2B;" d="M2082.353,1296.354c-11.11,3.954-27.466,8.93-46.772,12.237
				c-18.381-25.344-49.488-57.226-41.483-115.869c8.274-60.62,67.869-124.423,75.024-133.218
				c-8.65,13.375-35.537,96.176-29.114,111.037c27.031,62.463,45.557,86.62,52.298,104.143
				C2095.67,1283.421,2091.176,1293.209,2082.353,1296.354z"/>
			<path style="fill:#ED7D2B;" d="M1901.977,1052.627c5.719-10.415,8.862-19.827,5.053-25.054
				c-25.354-34.795-80.091-82.772-82.328-94.75c5.43,13.019,71.721,51.912,90.361,68.635
				C1933.492,1017.968,1902.729,1051.817,1901.977,1052.627z"/>
		</g>
		<g>
			<path style="fill:#6BB7BF;" d="M789.237,572.805c0,0,12.423,17.018,11.092,36.429c-0.989,14.408-13.833,28.984-14.696,29.56
				l20.269,10.811c0,0,15.034-26.688,9.966-48.985c-1.553-6.832-8.74-17.764-14.02-22.634
				C796.031,572.618,789.237,572.805,789.237,572.805z"/>
			<path style="fill:#86D1CD;" d="M747.796,574.606l-12.837-28.378c0,0,59.908,2.027,79.758,50.84
				C814.717,597.069,772.796,567.174,747.796,574.606z"/>
		</g>
		<g>
			<path style="fill:#6BB7BF;" d="M521.503,1296.56c0,0-14.28-10.784-17.965-26.893c-2.735-11.956,4.126-26.961,4.687-27.642
				l-19.134-3.811c0,0-5.667,25.391,3.929,42.272c2.941,5.174,11.468,12.296,16.957,14.959
				C516.025,1298.381,521.503,1296.56,521.503,1296.56z"/>
			<path style="fill:#86D1CD;" d="M554.751,1284.917l17.407,19.918c0,0-49.203,13.065-77.33-21.743
				C494.829,1283.092,536.252,1297.1,554.751,1284.917z"/>
		</g>
		<g>
			<path style="fill:#F1A34F;" d="M2711.253,1389.299c0,0-1.25-18.713,33.875-27.766c15.744-4.059,50.8,3.156,28.577,37.646
				c-23.116,35.876-43.725,22.924-43.725,22.924s48.212-37.735,28.921-54.991c-21.29-19.045-29.474,18.693-29.474,18.693
				S2720.853,1385.351,2711.253,1389.299z"/>
			<path style="fill:#DB7714;" d="M2723.719,1424.265c0,0-13.138-7.117-7.933-22.901l18.884,3.275c0,0-7.261,17.091,10.5,19.159
				C2745.17,1423.798,2728.079,1427.857,2723.719,1424.265z"/>
		</g>
		<g>
			<path style="fill:#5685D8;" d="M1491.8,420.63c0,0,19.626-28.267,49.727-8.25l18.332-17.531c0,0-17.126-13.003-56.631,10.316
				C1477.38,420.423,1491.8,420.63,1491.8,420.63z"/>
			<path style="fill:#739AF0;" d="M1472.427,448.342c0,0-3.882-32.448,50.431-52.691c0,0-19.631,9.515-25.688,41.857
				L1472.427,448.342z"/>
		</g>
		<path style="fill:#F99746;" d="M1690.639,276.251c0,0,16.051-10.137,17.74-22.387c0,0,15.629,0.845,19.008,5.913
			c0,0-7.181,20.275-15.628,24.077C1711.759,283.854,1692.751,285.122,1690.639,276.251z"/>
		<path style="fill:#F99746;" d="M1174.112,1432.891c0,0-17.123-10.814-18.925-23.882c0,0-16.672,0.901-20.277,6.309
			c0,0,7.661,21.629,16.672,25.685C1151.582,1441.002,1171.859,1442.354,1174.112,1432.891z"/>
		<path style="fill:#86D1CD;" d="M1876.958,595.637c0,0,17.198-10.862,19.009-23.988c0,0,16.746,0.905,20.367,6.336
			c0,0-7.694,21.725-16.746,25.798C1899.588,603.783,1879.221,605.141,1876.958,595.637z"/>
		<g>
			<path style="fill:#FFB27D;" d="M2211.672,1093.622c0,0-9.943-12.065-15.29-13.76c-5.346-1.694-15.694-9.704-17.044-6.401
				c-1.35,3.302,6.954,8.39,6.517,12.162c-0.438,3.773-26.402,9.828-26.242,13.821c0.16,3.992,6.108,13.641,16.012,12.532
				c9.902-1.107,35.019-7.067,40.177-4.493C2220.959,1110.059,2211.672,1093.622,2211.672,1093.622z"/>
			<path style="fill:#AEC3FF;" d="M2479.446,1034.929c-14.659,19.694-31.825,35.248-49.46,47.51
				c-56.055,38.997-116.861,44.806-116.861,44.806c-14.572-4.664-59.336-9.536-85.788-13.798h-0.011
				c-11.531-1.853-19.575-3.597-20.12-5.145l0.665-23.041c0,0,97.09-5.134,113.166-12.59c25.352-21.842,47.75-50.2,62.344-72.358
				c12.327-18.714,26.125-32.534,48.872-40.643C2465.146,947.942,2524.962,973.784,2479.446,1034.929z"/>
			<path style="fill:#9DB0F4;" d="M2434.935,1067.942l-4.948,14.496c-56.055,38.997-116.861,44.806-116.861,44.806
				c-11.706,0-59.336-9.536-85.788-13.798c1.047,0.087,72.022,5.635,87.706,4.011c15.804-1.635,89.373-65.396,89.373-65.396
				L2434.935,1067.942z"/>
			<path style="fill:#233862;" d="M2371.551,1798.105h107.295c7.688-5.213-2.074-56.182-2.074-56.182s-29.283-11.111-34.341,11.483
				c-5.073,22.58-37.299,29.76-54.354,32.515C2376.406,1787.82,2372.718,1794.231,2371.551,1798.105z"/>
			<path style="fill:#233862;" d="M2530.679,1798.105h107.296c7.687-5.213-2.074-56.182-2.074-56.182s-29.283-11.111-34.341,11.483
				c-5.073,22.58-37.3,29.76-54.354,32.515C2535.534,1787.82,2531.846,1794.231,2530.679,1798.105z"/>
			<path style="fill:#2B478B;" d="M2400.419,1278.136c0,0,4.822,60.17,10.49,132.496c7.704,98.25,28.483,341.848,28.483,341.848
				s13.623,11.623,43.797,5.265c0,0,25.684-84.037,33.364-179.953c0.119-1.571,0.238-3.155,0.357-4.738
				c7.145-97.643,18.255-303.252,18.255-303.252L2400.419,1278.136z"/>
			<path style="fill:#233862;" d="M2398.772,1257.345c0,0,6.469,80.961,12.137,153.287l105.645,167.159
				c0.119-1.571,0.238-3.155,0.357-4.738c7.145-97.643,18.255-303.252,18.255-303.252L2398.772,1257.345z"/>
			<path style="fill:#2B478B;" d="M2429.564,1257.345c0,0,76.62,190.724,101.114,263.02
				c17.448,51.497,66.653,232.153,66.653,232.153s21.397,6.512,39.381-6.075c0,0,18.307-184.57-18.672-236.613
				c-19.619-27.612-4.875-287.023-84.42-289.245C2454.076,1218.363,2429.564,1257.345,2429.564,1257.345z"/>
			<path style="fill:#FFB27D;" d="M2463.789,976.185c11.696,6.161,23.112,6.546,33.009,4.443c9.054-1.904,16.827-5.9,22.363-9.438
				c5.682-3.632,9.022-6.795,9.022-6.795s-0.396-0.572-1.062-1.696c-3.455-5.911-13.934-27.161-9.271-61.304
				c0.062-0.447-3.32,0.188-8.43,1.395c-15.204,3.6-45.768,12.269-47.12,12.654c-0.031,0-0.053,0-0.053,0s-0.374,7.181-1.633,20.053
				c-0.104,1.134-0.219,2.321-0.344,3.548c-0.156,1.509-0.313,3.112-0.5,4.756C2458.356,957.184,2463.789,976.185,2463.789,976.185z
				"/>
			<path style="fill:#ED975D;" d="M2460.615,935.497c22.696,5.203,56.569-28.305,56.569-28.305
				c-2.478-1.842-5.079-3.299-7.764-4.402c-15.204,3.6-45.768,12.269-47.12,12.654c-0.031,0-0.053,0-0.053,0
				S2461.874,922.624,2460.615,935.497z"/>
			<path style="fill:#FFB27D;" d="M2452.904,913.629c0,0,9.332,3.35,21.23,4.949c17.4,2.35,40.279,0.964,47.468-20.088
				c12.106-35.435,27.571-56.681-8.056-71.15c-19.071-7.746-31.272-8.157-39.56-5.201c-7.2,2.55-11.444,7.648-14.658,12.69
				C2452.41,845.675,2438.493,907.426,2452.904,913.629z"/>
			<path style="fill:#A9453D;" d="M2431.286,837.627c20.629,14.827,49.165,0.25,58.035,4.196
				c8.86,3.937,10.452,18.799,10.612,23.516c0.159,4.727,0.78,8.71,12.813,5.883c1.973-0.461,3.393-0.325,4.37,0.261
				c4.991,2.961-1.388,17.315-3.312,20.422c0,0-2.768,10.282,3.376,15.288c0.743,0.598,12.813,5.873,41.899-38.639
				c4.572-6.987,8.938-22.728,1.876-37.883c-7.052-15.155-36.531-29.804-61.527-37.567c-9.368-2.911-16.313-2.804-21.747-0.811
				c-9.063,3.312-13.896,11.877-18.689,20.481C2450.951,827.227,2431.286,837.627,2431.286,837.627z"/>
			<path style="fill:#AEC3FF;" d="M2564.014,1270.678c0,0-9.984,2.158-22.605,4.295c-12.349,2.07-27.236,4.109-37.754,4.032
				c-53.799-0.425-98.824-16.261-98.824-16.261c-10.113,0-14.735-15.663-16.392-37.516c-1.123-14.801-0.883-32.447-0.077-49.994
				c0.262-5.689,0.59-11.379,0.938-16.949c0.709-11.051,1.537-21.656,2.289-31.041c0.708-8.806,1.352-16.522,1.733-22.506
				c0-0.012-1.438-41.875-0.872-78.715c0.403-26.441,15.237-50.507,18.953-54.43c10.769-11.39,41.973-18.594,48.219-19.586
				c0.479-0.065,0.73-0.109,0.73-0.109c25.656,14.409,60.207-5.058,60.207-5.058c0.784,0.131,1.548,0.316,2.311,0.479
				c2.539-0.545,28.469,3.303,34.507,6.594c14.921,8.131,23.586,98.355,23.586,98.355c2.485,61.285-0.643,159.434,4.207,196.894
				C2586.771,1261.501,2574.826,1268.183,2564.014,1270.678z"/>
			<path style="fill:#9DB0F4;" d="M2522.694,947.359c0,0-38.229,39.431-65.561,31.353c0,0-3.642-5.325,8.668-7.032
				C2478.111,969.973,2491.397,970.671,2522.694,947.359z"/>
			<path style="fill:#FFFFFF;" d="M2452.634,890.752c0,0-0.746,4.587,9.92,8.248c0,0,8.954,3.075,10.589-1.63
				C2473.143,897.37,2466.029,890.597,2452.634,890.752z"/>
			<path style="fill:#9DB0F4;" d="M2543.654,1096.531c0,0-55.521,92.861-87.02,109.21c-21.297,11.052-51.117,16.871-68.196,19.487
				c-1.123-14.801-0.883-32.447-0.077-49.994c22.563-2.736,56.928-7.096,56.928-7.096L2543.654,1096.531z"/>
			<path style="fill:#9DB0F4;" d="M2470.522,1049.874l-29.594,106.82c0,0-34.823,2.202-51.63,1.591
				c0.709-11.051,0.73-11.421,1.482-20.805C2390.781,1137.48,2430.759,1116.64,2470.522,1049.874z"/>
			<path style="fill:#FFB27D;" d="M2292.326,1164.602c0,0-9.943-12.065-15.289-13.759c-5.347-1.694-15.696-9.704-17.045-6.401
				c-1.35,3.302,6.953,8.389,6.516,12.162c-0.437,3.773-26.401,9.828-26.241,13.821c0.159,3.992,6.108,13.64,16.011,12.532
				c9.903-1.107,35.02-7.067,40.178-4.493C2301.612,1181.038,2292.326,1164.602,2292.326,1164.602z"/>
			<path style="fill:#AEC3FF;" d="M2584.051,1016.402c0,0,1.749,56.576-127.207,170.092l-25.898-46.386
				c-4.77-2.776,83.309-192.215,108.621-190.703C2588.613,952.334,2584.051,1016.402,2584.051,1016.402z"/>
			<path style="fill:#AEC3FF;" d="M2446.367,1134.577c0,0-146.652,16.768-152.08,19.681c-5.429,2.913-17.081,14.26-13.197,28.492
				c0,0,75.915,9.543,117.683,9.367c36.032-0.152,59.336-5.931,59.336-5.931L2446.367,1134.577z"/>
		</g>
		<path style="fill:#2E3552;" d="M2973.83,1806.239H218.482c-1.862,0-3.385-1.523-3.385-3.385v-1.803
			c0-1.861,1.523-3.385,3.385-3.385H2973.83c1.862,0,3.385,1.523,3.385,3.385v1.803
			C2977.215,1804.716,2975.692,1806.239,2973.83,1806.239z"/>
	</g>
</g>
</svg>
